<!-- Generator: Adobe Illustrator 21.1.0, SVG Export Plug-In  -->
<svg version="1.1"
     xmlns="http://www.w3.org/2000/svg" xmlns:xlink="http://www.w3.org/1999/xlink" xmlns:a="http://ns.adobe.com/AdobeSVGViewerExtensions/3.0/"
     x="0px" y="0px" width="722px" height="601.3px" viewBox="0 0 722 601.3" style="enable-background:new 0 0 722 601.3;"
     xml:space="preserve">
<style type="text/css">
    .st0{fill:#50C5D8;}
    .st1{fill:#222222;}
</style>
<defs>
</defs>
<g>
    <path class="st0" d="M453.6,20.1C421.6,2.4,376.4,0.2,363,0l0,0h-3.9l0,0c-13.5,0.2-58.6,2.4-90.6,20.1l-5.2,2.8l5,3
        c33.8,20.4,49.8,49.6,57.4,70.4c4.7,12.9,7.5,26.3,8.3,40c0.2-0.1,0.4-0.2,0.5-0.2c0.9-0.2,1.9-0.2,2.8-0.1
        c1.2,0.2,2.3,0.4,3.5,0.8c-0.1-3.4-0.9-20.7-8.7-42.6c-10.2-29-29.6-54-55.2-71c31.6-15.1,74.6-16.5,84-16.6
        c9.4,0.1,52.4,1.5,84.1,16.6c-25.6,17-45,42-55.2,71c-8.5,23.8-8.7,42.4-8.7,43.2v0.7c2.4-0.1,4.9-0.2,7.3-0.3l-0.5-0.6
        c0-1.6,0.5-19.2,8.4-41c7.5-20.9,23.6-50,57.4-70.4l5-3L453.6,20.1z"/>
    <path class="st0" d="M667.2,387.5c-14.2,4-24.8,1.5-24.9,1.4l-6.8-1.8l2.9,6.4c8.5,18.9,6,49.8-6.4,78.5
        c-10.5,24.2-37.2,67.9-98.6,89.1c-36.1,12.5-78.9,15.7-117.4,9c-6.5-1.1-12.7-2.5-18.6-4.2c-2.2,1.7-4.5,3.4-6.9,5
        c8,2.5,16.1,4.4,24.3,5.8c13.8,2.4,27.8,3.6,41.8,3.6c27.2,0,54.6-4.3,79-12.8c63.9-22,91.7-67.6,102.6-92.8
        c12-27.8,15.2-57.8,8.5-78.4c7.4,0.5,14.9-0.2,22-2.2c12.6-3.5,30.1-12.3,46.1-34.5c0.3-4.4,0.5-8.8,0.5-13.2
        C702.4,368,685.8,382.2,667.2,387.5z"/>
    <path class="st0" d="M354.1,553.7c-7,3.8-14.4,6.9-22,9.4c2.2,1.6,4.5,3.2,7,4.7c7.4-2.7,14.5-6,21.3-10c7,4.1,14.3,7.6,21.9,10.4
        c2.5-1.5,4.8-3.1,7-4.7c-7.8-2.5-15.4-5.8-22.6-9.8c8.4-5.9,14.7-12.5,18.6-19.5c6.1-11.1,11.3-33.6-21.9-59.7l-2.1-1.7l-2.1,1.7
        c-33.7,27-28.4,49.7-22.2,60.8C340.6,542,346.4,548.2,354.1,553.7z M361.3,481.5c14.6,12.1,28.6,30,18,49.4
        c-3.8,6.9-10.2,13.3-18.9,19c-8-5.3-14-11.4-17.5-17.9C334.2,516.3,340.6,498.9,361.3,481.5L361.3,481.5z"/>
    <path class="st0" d="M324.2,565.5c-5.7,1.6-11.6,3-17.9,4.1c-38.7,7.1-81.5,4-117.6-8.5c-61.5-21.2-88.2-64.9-98.6-89.1
        c-12.4-28.8-15-59.6-6.4-78.5l2.9-6.4l-6.8,1.7c-0.1,0-10.7,2.6-25-1.5c-18.6-5.3-35.2-19.5-48-41c0.1,4.4,0.2,8.9,0.5,13.2
        c16,22.1,33.4,31,46.1,34.5c7.1,2,14.6,2.8,22,2.3c-6.6,20.7-3.5,50.6,8.5,78.4c10.9,25.2,38.7,70.8,102.6,92.8
        c37.1,12.8,81.2,16,121,8.7c7.9-1.4,15.8-3.4,23.5-5.8C328.6,568.9,326.3,567.2,324.2,565.5z"/>
    <path class="st1" d="M713.8,274.1C696.6,201,657.9,146,657.5,145.4l-14.4-20.3l8.5,23.4c5.8,16.7,10.6,33.7,14.4,51
        c7.4,34.8,6.7,58.9-2,69.5c-4.3,5.3-10.7,7.3-19.4,6l-6.9-1l3.5,6c0.2,0.3,17.9,31.4,27.1,74.7c8.4,39.5,11.2,97.5-22.3,150.4
        c-3.2,3.1-6.4,6.2-9.8,9.2c-96.8,86.6-200.7,91.5-266.1,68.2c33.5-15.6,54.1-38.8,54.1-60.9c0-36.2-29.5-62.5-56.9-81.1
        c5.4-3.4,10.6-6.5,15.2-9.3c5.8-3.5,10.9-6.5,14.8-9.2l1-0.7c1.4-1,2.9-2,4.5-3.1c24.3-6.8,49.3-19.8,66.4-41.5
        c36.3-46.1,41-72.8,37.8-92.2c-1.7-31-20.7-74.6-85.3-141.4c7.8-37.3,48-69,83.6-86.4l6.1-3l-6.1-3.1c-15.8-8-36.2-14.7-59.3-19.6
        c-2.5,1.8-5,3.6-7.3,5.5c22,4.2,41.6,10.1,57.3,17.2c-19.2,10.1-36.3,22.4-49.9,35.8c-16.5,16.4-26.9,33.4-30.9,50.8
        c-18.1-4.1-36.7-6.1-55.3-6.1c-18.6,0-37.1,2-55.3,6.1c-3.9-17.4-14.3-34.4-30.9-50.8C260.3,76,243.2,63.7,224,53.6
        c15.8-7.1,36.8-13.3,58.9-17.5c-2.3-1.9-4.8-3.7-7.3-5.5c-23.4,4.9-44.9,11.8-60.8,19.8l-6.1,3.1l6.1,3
        c35.6,17.4,75.8,49.1,83.6,86.4c-42.6,44.1-69.8,82.7-81,114.7c-2.1,6.1-3.8,12.3-4.9,18.7c-5.9,20.3-1.6,49,40.1,100.2
        c15.8,19.4,40.5,33,65.3,40.5c2.1,1.5,4,2.9,5.8,4.1l1,0.7c3.9,2.7,9,5.7,14.8,9.2c4.7,2.8,9.8,5.9,15.2,9.3
        c-27.4,18.5-56.9,44.9-56.9,81.1c0,22.1,20.7,45.3,54.1,60.9c-65.4,23.3-169.3,18.4-266.1-68.2c-3.4-3-6.7-6.1-9.8-9.2
        c-33.6-52.9-30.8-110.8-22.4-150.3c9.2-43.3,26.9-74.4,27.1-74.7l3.5-6l-6.9,1c-8.8,1.2-15.1-0.7-19.4-6
        c-8.7-10.6-9.3-34.7-1.9-69.5c3.7-17.3,8.5-34.3,14.4-51l8.5-23.4l-14.4,20.3c-0.4,0.6-39.1,55.6-56.3,128.7
        c-10.1,43-10.9,83.9-2.4,121.4c9.7,42.5,31.5,80.8,65,113.9l0.4,0.7l0.2-0.1c3.2,3.2,6.6,6.3,10,9.4
        c67.5,60.3,138.5,81.8,198.2,81.8c30.8,0,58.7-5.8,81.4-14.8c22.7,9.1,50.5,14.8,81.4,14.8c59.7,0,130.7-21.5,198.2-81.8
        c3.5-3.1,6.8-6.2,10-9.4l0.2,0.1l0.4-0.7c33.4-33.1,55.2-71.3,65-113.9C724.7,358,723.9,317.2,713.8,274.1z M14.8,275.9
        c10.2-43.7,28.3-80.8,41-103.3c-8.8,31.1-19.2,81-3,100.8c4.7,5.8,11.2,8.8,19.3,8.9c-11.3,22.5-19.6,46.4-24.9,71
        c-7.5,34.9-10.7,84,10.6,131.9C10.1,427.6-4.3,357.4,14.8,275.9L14.8,275.9z M463.9,372.3c-12.1,15.4-29.2,26.5-47.6,33.9
        c9.4-10.3,18.8-26.1,24.6-53.1c17-4.3,36.9-10.9,49.4-20.6C484.5,343.8,476,356.9,463.9,372.3L463.9,372.3z M435.1,347.5
        c-26.4,6.2-55.7,9.5-75,9.5c-18.9,0-47-3-73-8.8c-2.9-14.8-4.6-33-4.6-55.5c0-19.7,2.6-39.4,7.6-58.4c25.1-5.2,52.2-7.8,71-7.8
        c23.7,0.1,47.4,2.4,70.7,6.9c5.2,19.3,7.9,39.3,7.9,59.3C439.6,314.9,437.9,332.9,435.1,347.5L435.1,347.5z M494.6,267
        c2.2,5.6,4.4,11.4,5.6,18c0.5,10.7-1.2,21.3-5,31.3c-4.7,12.7-26.7,22.6-52.8,29.5c2.5-14.5,4-31.9,4-53c0-19.5-2.4-38.9-7.3-57.8
        c27,6,49.2,15.4,54.1,28.3C493.6,264.5,494.1,265.8,494.6,267L494.6,267z M437.1,227.7c-5-17.2-11.8-33.8-20.4-49.4
        c-6.8-12.4-14.8-24.2-23.8-35.1c7.9,1.1,15.8,2.5,23.6,4.4c41.9,43.3,64.2,76.3,75,102.3C480,239.3,459.3,232.3,437.1,227.7
        L437.1,227.7z M382.9,141.9c4.8,5.1,31.8,35.4,46.7,84.3c-22.6-4-45.6-6.2-68.6-6.4c-14.5,0-41.9,2-68.9,7.2
        c4.7-15.7,11.1-30.9,19-45.3c12.6-23,25.4-37.1,28.2-40c6.9-0.6,13.8-0.9,20.7-0.9C367.7,140.9,375.3,141.2,382.9,141.9
        L382.9,141.9z M303.5,147.4c8.5-2,17.1-3.6,25.8-4.7c-9.1,11-17.2,22.9-24,35.4c-8.8,15.9-15.7,32.8-20.7,50.3
        c-23.2,5-45.2,12.5-57.6,23.2C239.4,222.2,265.1,187.2,303.5,147.4L303.5,147.4z M222.9,316.3c-3.5-9.4-6.7-21.9-3.6-39.5
        c1.6-4.5,3.6-8.9,6.1-12.9c7-12.3,30.4-21.6,57.2-27.8c-4.6,18.6-7,37.6-7,56.8c0,21.4,1.6,39.1,4.2,53.8
        C251.9,339.7,227.9,329.5,222.9,316.3z M257.9,372.3c-11.5-14.1-20-26.4-26.1-37.1c12.4,8,30.4,14.2,49.5,18.7
        c5.6,25.7,14.6,41.3,23.6,51.5C286.7,397.8,269.7,386.8,257.9,372.3L257.9,372.3z M321.1,411.1c-10.9-8.3-24.7-22.5-32.5-55.5
        c26.9,5.7,54.8,8.3,71.4,8.3c17.5,0,46.2-2.8,73.5-8.9c-8,34.3-22.4,48.5-33.5,56.8c-12.7,3.5-25.8,5.4-39,5.5
        C347.5,417.1,334.1,415,321.1,411.1z M343.1,425.4c-2.1-1.3-4.1-2.5-6-3.6c7.9,1.4,15.9,2.2,23.9,2.2c7.8,0,15.6-0.7,23.3-1.9
        l-5.4,3.2c-5.5,3.3-11.6,7-17.9,11.1C354.7,432.3,348.5,428.6,343.1,425.4L343.1,425.4z M361,579.1c-1.3-0.5-2.5-1.1-3.7-1.6
        c-32.4-14.5-52.5-35.9-52.5-55.8c0-34,29.5-59.3,56.3-77.1c26.8,17.8,56.3,43,56.3,77.1c0,19.9-20.1,41.3-52.5,55.8
        C363.5,578,362.3,578.5,361,579.1L361,579.1z M664.3,485.1c21.3-47.9,18-97,10.6-131.9c-5.3-24.6-13.6-48.5-24.9-71
        c8.1-0.1,14.6-3.1,19.3-8.9c16.2-19.9,5.7-69.8-3-100.9c12.7,22.5,30.7,59.5,41,103.2C726.4,357.3,711.9,427.6,664.3,485.1z"/>
</g>
</svg>
