<svg xmlns="http://www.w3.org/2000/svg" viewBox="0 0 966.05 863.14">
	<defs><style>.cls-1{fill:#222;}.cls-2{fill:#50c5d8;}</style></defs>
	<path class="cls-1" d="M-1215.9,789.62l-.3.64c-4,8.57-12.38,13.69-22.31,13.69-14.43,0-24.52-10.47-24.52-25.46,0-15.3,9.69-25.19,24.69-25.19,13.73,0,19.47,8.51,21.3,12.17l.31.63,6.36-1.82-.39-.89c-3.46-8-12.53-16.46-27.59-16.46-18.43,0-31.31,13-31.31,31.56s12.87,31.74,31.31,31.74c13,0,23.59-6.73,28.44-18l.39-.9Z" transform="translate(1269.65 -24.85)"/>
	<path class="cls-1" d="M-1162.12,748.63l-.22-.51h-6.29l-26.7,61.09h7l7.55-17.39h30.37l7.55,17.39h7.11Zm9.13,37h-25.07l6.7-15.44c1-2.43,2.42-5.67,3.64-8.54l2.19-5.14,1.79,4.22c1.31,3.11,2.89,6.84,4.05,9.55Z" transform="translate(1269.65 -24.85)"/>
	<path class="cls-1" d="M-1068.95,748.12l-21.22,38-21.31-38h-6.44v61.09h6.53v-31c0-5.07-.11-12.7-.2-18.18,1.27,2.48,3.43,6.57,6.92,12.66l12.38,21.9h4.13l12.46-22.15c3.34-5.93,5.49-10,6.75-12.45-.09,5.48-.2,13.14-.2,18.23v31h6.62V748.12Z" transform="translate(1269.65 -24.85)"/>
	<path class="cls-1" d="M-1021.85,748.12h-17.65v61.09h6.53V785.7h11.12c14.34,0,22.57-6.87,22.57-18.84S-1007.3,748.12-1021.85,748.12Zm16,18.83c0,8.33-5.37,12.56-16,12.56H-1033V754.4h11.2C-1011.19,754.4-1005.82,758.62-1005.82,767Z" transform="translate(1269.65 -24.85)"/>
	<path class="cls-1" d="M-949.06,776.33c4.13-1.85,7.82-6,7.82-12.94,0-9.14-7.47-15.28-18.58-15.28h-21v61.09h23.16c13,0,20.79-6.44,20.79-17.22C-936.83,782.33-943.62,777.87-949.06,776.33Zm-25.19-2.17v-20h13.58c8,0,12.81,3.68,12.81,9.84,0,6.38-4.5,10.18-12,10.18Zm30.63,17.73c0,9.82-8.88,11.28-14.17,11.28h-16.46V779.85H-958C-951,779.85-943.62,783.62-943.62,791.89Z" transform="translate(1269.65 -24.85)"/>
	<polygon class="cls-1" points="358.79 778.07 358.79 755.42 385.77 755.42 385.77 749.05 358.79 749.05 358.79 729.54 392.98 729.54 392.98 723.26 352.26 723.26 352.26 784.35 393.07 784.35 393.07 778.07 358.79 778.07"/>
	<polygon class="cls-1" points="420.06 778.07 420.06 723.26 413.53 723.26 413.53 784.35 452.64 784.35 452.64 778.07 420.06 778.07"/>
	<polygon class="cls-1" points="478.45 778.07 478.45 723.26 471.92 723.26 471.92 784.35 511.03 784.35 511.03 778.07 478.45 778.07"/>
	<path class="cls-1" d="M-687.16,774.77c-8.94-1.79-15.78-3.77-15.78-11.55,0-6.57,4.82-10.18,13.58-10.18s13.95,3.63,15.63,10.8l.2.85,6.4-1.71-.2-.81c-2.39-9.83-10.22-15.24-22-15.24-12.65,0-20.2,6.18-20.2,16.54,0,12.94,12,15.55,19.16,17.12.89.2,1.82.39,2.78.59,6.82,1.38,14.55,3,14.55,11.83,0,9.18-7.89,11.11-14.51,11.11-5,0-16.78-1.26-17.39-12.94l-.06-1.05-6.38,1.74.08.72c1.73,15.35,15.52,17.64,23.58,17.64,13.73,0,21.29-6.15,21.29-17.31C-666.46,778.72-678.92,776.34-687.16,774.77Z" transform="translate(1269.65 -24.85)"/>
	<path class="cls-1" d="M-597.09,789.62l-.3.64c-4,8.57-12.38,13.69-22.31,13.69-14.44,0-24.52-10.47-24.52-25.46,0-15.3,9.69-25.19,24.69-25.19,13.73,0,19.47,8.51,21.3,12.17l.31.63,6.36-1.82-.39-.89c-3.46-8-12.53-16.46-27.59-16.46-18.43,0-31.31,13-31.31,31.56s12.88,31.74,31.31,31.74c13,0,23.58-6.73,28.44-18l.39-.9Z" transform="translate(1269.65 -24.85)"/>
	<polygon class="cls-1" points="739.05 723.26 739.05 749.05 705.28 749.05 705.28 723.26 698.75 723.26 698.75 784.35 705.28 784.35 705.28 755.42 739.05 755.42 739.05 784.35 745.67 784.35 745.67 723.26 739.05 723.26"/>
	<path class="cls-1" d="M-473.06,746.93c-18.24,0-31.48,13.31-31.48,31.64s13.24,31.65,31.48,31.65,31.48-13.31,31.48-31.65S-454.82,746.93-473.06,746.93Zm0,57c-14.64,0-24.86-10.43-24.86-25.37s10.22-25.28,24.86-25.28,24.86,10.4,24.86,25.28S-458.42,803.95-473.06,803.95Z" transform="translate(1269.65 -24.85)"/>
	<path class="cls-1" d="M-393.71,746.93c-18.24,0-31.48,13.31-31.48,31.64s13.24,31.65,31.48,31.65,31.47-13.31,31.47-31.65S-375.47,746.93-393.71,746.93Zm24.86,31.64c0,14.94-10.22,25.37-24.86,25.37s-24.86-10.43-24.86-25.37,10.22-25.28,24.86-25.28S-368.85,763.69-368.85,778.57Z" transform="translate(1269.65 -24.85)"/>
	<polygon class="cls-1" points="933.47 778.07 933.47 723.26 926.94 723.26 926.94 784.35 966.05 784.35 966.05 778.07 933.47 778.07"/>
	<path class="cls-1" d="M-1137.17,842.9c-13,0-22.43,9.48-22.43,22.55s9.43,22.54,22.43,22.54,22.43-9.48,22.43-22.54S-1124.18,842.9-1137.17,842.9Zm17.26,22.55c0,10.37-7.1,17.62-17.26,17.62s-17.26-7.24-17.26-17.62,7.1-17.56,17.26-17.56S-1119.91,855.11-1119.91,865.45Z" transform="translate(1269.65 -24.85)"/>
	<polygon class="cls-1" points="197.73 823.81 197.73 818.89 168.65 818.89 168.65 862.42 173.76 862.42 173.76 842.7 192.88 842.7 192.88 837.77 173.76 837.77 173.76 823.81 197.73 823.81"/>
	<polygon class="cls-1" points="253.2 818.89 253.2 837.06 229.91 837.06 229.91 818.89 224.81 818.89 224.81 862.42 229.91 862.42 229.91 842.04 253.2 842.04 253.2 862.42 258.37 862.42 258.37 818.89 253.2 818.89"/>
	<rect class="cls-1" x="274.58" y="818.89" width="5.1" height="43.54"/>
	<path class="cls-1" d="M-951.33,864.36v4.93h13v6c-1.71,3.09-7.29,7.79-15.47,7.79-10.17,0-17.26-7.27-17.26-17.68s6.94-17.5,17.26-17.5c9.89,0,13.81,6.45,14.78,8.43l.31.64,5-1.42-.39-.89c-2.47-5.68-8.94-11.75-19.66-11.75-13.21,0-22.43,9.27-22.43,22.55,0,13.06,9.36,22.54,22.25,22.54a21.71,21.71,0,0,0,15.73-6.29c0,1,0,2.48,0,4.73v.85h4.87V864.36Z" transform="translate(1269.65 -24.85)"/>
	<polygon class="cls-1" points="379.8 818.89 379.8 837.06 356.51 837.06 356.51 818.89 351.41 818.89 351.41 862.42 356.51 862.42 356.51 842.04 379.8 842.04 379.8 862.42 384.96 862.42 384.96 818.89 379.8 818.89"/>
	<polygon class="cls-1" points="406.27 857.5 406.27 818.89 401.17 818.89 401.17 862.42 429.23 862.42 429.23 857.5 406.27 857.5"/>
	<path class="cls-1" d="M-806.78,843.74h-4.76l-19,43.54h5.5l5.32-12.25h21.06l5.32,12.25h5.56Zm6,26.42h-16.9l4.57-10.53c.75-1.75,1.75-4.1,2.62-6.15l1.25-3,1,2.42c.93,2.19,2,4.83,2.87,6.74Z" transform="translate(1269.65 -24.85)"/>
	<path class="cls-1" d="M-745.63,843.74v27.33c0,2.17,0,4.64.07,7.15l-25.09-34.48h-4.74v43.54h5.1V859.83c0-2.72,0-5.34-.1-7.36l25.12,34.81h4.75V843.74Z" transform="translate(1269.65 -24.85)"/>
	<path class="cls-1" d="M-709.9,843.74h-14.36v43.54h14.83c13.56,0,22.66-8.67,22.66-21.59C-686.76,852.56-696.06,843.74-709.9,843.74Zm18,22c0,10.12-6.92,16.66-17.62,16.66h-9.61V848.67H-710C-699,848.67-691.92,855.35-691.92,865.69Z" transform="translate(1269.65 -24.85)"/>
	<path class="cls-1" d="M-635.64,843.74H-650v43.54h14.83c13.56,0,22.66-8.67,22.66-21.59C-612.5,852.56-621.79,843.74-635.64,843.74Zm18,22c0,10.12-6.92,16.66-17.62,16.66h-9.61V848.67h9.14C-624.76,848.67-617.66,855.35-617.66,865.69Z" transform="translate(1269.65 -24.85)"/>
	<path class="cls-1" d="M-580.6,843.74h-4.76l-19,43.54h5.5l5.32-12.25h21.06l5.32,12.25h5.56Zm6,26.42h-16.9l4.57-10.53c.76-1.76,1.76-4.12,2.64-6.18l1.24-2.92,1,2.42c.93,2.19,2,4.83,2.87,6.74Z" transform="translate(1269.65 -24.85)"/>
	<path class="cls-1" d="M-519.44,843.74v27.33c0,2.17,0,4.64.07,7.15l-25.09-34.48h-4.74v43.54h5.1V859.83c0-2.72,0-5.34-.1-7.36l25.12,34.81h4.75V843.74Z" transform="translate(1269.65 -24.85)"/>
	<path class="cls-1" d="M-462.6,872.94l-.3.64a16.62,16.62,0,0,1-15.49,9.49c-10,0-17-7.27-17-17.68,0-10.63,6.73-17.5,17.14-17.5,9.53,0,13.51,5.9,14.78,8.44l.31.63,5-1.42-.39-.89c-2.47-5.68-8.94-11.75-19.66-11.75-13.14,0-22.31,9.25-22.31,22.49s9.38,22.6,22.31,22.6c9.23,0,16.81-4.79,20.26-12.82l.39-.9Z" transform="translate(1269.65 -24.85)"/>
	<polygon class="cls-1" points="830.99 857.5 830.99 842.04 849.99 842.04 849.99 837.06 830.99 837.06 830.99 823.81 855.08 823.81 855.08 818.89 825.88 818.89 825.88 862.42 855.13 862.42 855.13 857.5 830.99 857.5"/>
	<path class="cls-2" d="M-691.89,44.95c-32-17.63-77.13-19.81-90.6-20.06v0h-3.87v0c-13.47.25-58.58,2.43-90.6,20.06l-5.15,2.84,5,3c33.77,20.4,49.83,49.57,57.37,70.45a140.74,140.74,0,0,1,8.35,40,2.46,2.46,0,0,1,.54-.24,7.88,7.88,0,0,1,2.82-.11,17.1,17.1,0,0,1,3.45.83c-.08-3.37-.86-20.74-8.69-42.55a141.88,141.88,0,0,0-55.25-71c31.64-15.07,74.63-16.45,84.05-16.58,9.37.12,52.39,1.47,84.07,16.58a141.88,141.88,0,0,0-55.25,71c-8.55,23.81-8.69,42.35-8.69,43.18v.74c2.44-.05,4.89-.22,7.33-.29l-.55-.59c0-1.6.52-19.19,8.38-41,7.53-20.88,23.6-50,57.37-70.45l5-3Z" transform="translate(1269.65 -24.85)"/>
	<path class="cls-2" d="M-478.2,412.36c-14.24,4-24.81,1.46-24.91,1.44l-6.84-1.76,2.9,6.44c8.52,18.94,6,49.76-6.44,78.52-10.45,24.17-37.15,67.88-98.61,89.09-36.11,12.46-78.91,15.72-117.42,9-6.51-1.14-12.72-2.55-18.61-4.18q-3.26,2.58-6.87,5a197.16,197.16,0,0,0,24.31,5.83,241.91,241.91,0,0,0,41.76,3.56c27.17,0,54.6-4.34,79-12.78,63.92-22.05,91.74-67.62,102.63-92.81,12-27.81,15.16-57.75,8.53-78.43a64.41,64.41,0,0,0,22-2.25c12.61-3.48,30.14-12.34,46.11-34.46q.46-6.55.55-13.22C-443,392.91-459.6,407.1-478.2,412.36Z" transform="translate(1269.65 -24.85)"/>
	<path class="cls-2" d="M-791.35,578.59a133.76,133.76,0,0,1-22,9.4c2.21,1.61,4.55,3.17,7,4.7a131.44,131.44,0,0,0,21.27-9.95,127.35,127.35,0,0,0,21.89,10.36q3.69-2.28,7-4.69a129.68,129.68,0,0,1-22.6-9.75c8.36-5.86,14.71-12.46,18.58-19.55,6.06-11.08,11.27-33.57-21.87-59.73l-2.12-1.67-2.11,1.69c-33.67,27-28.4,49.68-22.25,60.83C-804.84,566.87-799,573.05-791.35,578.59Zm7.25-72.16c14.61,12.11,28.62,30,18,49.43-3.77,6.9-10.25,13.31-18.92,19-8-5.35-14-11.38-17.53-17.86C-811.21,541.23-804.83,523.79-784.1,506.43Z" transform="translate(1269.65 -24.85)"/>
	<path class="cls-2" d="M-821.28,590.41q-8.52,2.38-17.91,4.11c-38.65,7.07-81.5,4-117.57-8.46-61.46-21.21-88.17-64.92-98.61-89.09-12.43-28.75-15-59.57-6.44-78.51l2.86-6.39-6.8,1.71c-.1,0-10.71,2.6-25-1.45-18.57-5.27-35.15-19.46-48-41q.1,6.67.54,13.21c16,22.1,33.45,31,46.06,34.47a64.44,64.44,0,0,0,22,2.27c-6.63,20.67-3.5,50.61,8.53,78.43,10.89,25.2,38.71,70.76,102.63,92.81,37.13,12.81,81.23,16,121,8.72a198.94,198.94,0,0,0,23.51-5.75C-816.84,593.81-819.12,592.14-821.28,590.41Z" transform="translate(1269.65 -24.85)"/>
	<path class="cls-1" d="M-431.64,299c-17.17-73.08-55.91-128.12-56.3-128.67l-14.43-20.29,8.47,23.41a435.8,435.8,0,0,1,14.36,51c7.37,34.84,6.7,58.88-1.95,69.52-4.31,5.3-10.65,7.27-19.41,6l-6.89-1,3.47,6c.18.31,17.88,31.36,27.09,74.66C-468.82,419.17-466,477.1-499.57,530q-4.75,4.66-9.81,9.19c-96.79,86.58-200.7,91.47-266.09,68.21,33.45-15.61,54.12-38.78,54.12-60.89,0-36.22-29.45-62.55-56.87-81.09,5.39-3.42,10.57-6.54,15.23-9.34,5.85-3.52,10.9-6.55,14.81-9.24l1-.69c1.41-1,2.92-2,4.51-3.14,24.31-6.75,49.3-19.78,66.41-41.53,36.27-46.1,41-72.82,37.77-92.16-1.67-31-20.69-74.63-85.26-141.44,7.75-37.3,48-69,83.56-86.43l6.12-3-6.07-3.08c-15.79-8-36.18-14.72-59.26-19.55q-3.81,2.66-7.28,5.46c22,4.2,41.62,10.11,57.33,17.21-19.17,10.07-36.32,22.37-49.91,35.81-16.55,16.37-26.91,33.45-30.86,50.8A249.86,249.86,0,0,0-785.39,159a249.8,249.8,0,0,0-55.28,6.11c-3.94-17.36-14.31-34.43-30.86-50.8-13.58-13.44-30.74-25.73-49.91-35.81,15.77-7.13,36.8-13.27,58.9-17.48q-3.5-2.8-7.33-5.46c-23.38,4.87-44.94,11.78-60.79,19.82l-6.07,3.08,6.12,3C-895,98.84-854.79,130.56-847,167.86c-42.58,44.06-69.82,82.65-81,114.74a114.54,114.54,0,0,0-4.87,18.7c-5.88,20.32-1.61,49,40.12,100.21,15.78,19.38,40.49,33,65.26,40.52,2.07,1.54,4,2.89,5.84,4.11l1,.69c3.92,2.69,9,5.72,14.81,9.24,4.67,2.81,9.84,5.92,15.23,9.34-27.42,18.54-56.87,44.87-56.87,81.09,0,22.12,20.67,45.29,54.12,60.89-65.39,23.27-169.3,18.37-266.09-68.21q-5.07-4.53-9.81-9.19c-33.62-52.9-30.75-110.84-22.36-150.26,9.22-43.31,26.92-74.35,27.09-74.66l3.47-6-6.89,1c-8.76,1.24-15.1-.73-19.41-6-8.65-10.64-9.32-34.68-1.95-69.52a435.76,435.76,0,0,1,14.36-51l8.47-23.41-14.43,20.29c-.39.55-39.13,55.59-56.3,128.67-10.12,43.05-10.91,83.88-2.36,121.36,9.71,42.55,31.54,80.8,65,113.88l.43.67.15-.1q4.86,4.78,10,9.42c67.47,60.35,138.49,81.85,198.17,81.85,30.85,0,58.66-5.75,81.4-14.84,22.74,9.09,50.54,14.85,81.4,14.84,59.68,0,130.71-21.5,198.17-81.85q5.18-4.64,10-9.42l.15.1.43-.67c33.42-33.08,55.25-71.33,65-113.88C-420.73,382.91-421.52,342.08-431.64,299Zm-699,1.75c10.24-43.69,28.33-80.83,41-103.34-8.75,31.07-19.17,81-3,100.84,4.69,5.77,11.16,8.75,19.28,8.89a297.85,297.85,0,0,0-24.88,71c-7.46,34.93-10.71,84,10.56,131.89C-1135.3,452.5-1149.76,382.29-1130.66,300.78Zm449.06,96.49c-12.1,15.38-29.25,26.54-47.56,33.88,9.36-10.26,18.84-26.15,24.59-53.07,17-4.26,36.86-10.92,49.42-20.62C-660.91,368.69-669.4,381.77-681.59,397.27Zm-28.77-24.83c-26.43,6.24-55.69,9.5-75,9.5-18.87,0-47-3-73-8.76-2.88-14.81-4.64-33-4.64-55.49a227.68,227.68,0,0,1,7.64-58.41c25.14-5.2,52.17-7.81,71-7.81a386.67,386.67,0,0,1,70.65,6.87,226.73,226.73,0,0,1,7.89,59.35C-705.86,339.81-707.56,357.76-710.36,372.44Zm59.51-80.53c2.15,5.58,4.38,11.36,5.57,18a76.34,76.34,0,0,1-5,31.27c-4.73,12.68-26.74,22.58-52.83,29.45,2.54-14.52,4.05-31.94,4.05-52.95a234.28,234.28,0,0,0-7.26-57.8c27,6,49.24,15.4,54.06,28.32C-651.81,289.43-651.33,290.67-650.85,291.91Zm-57.46-39.34a242,242,0,0,0-20.4-49.44A222.52,222.52,0,0,0-752.48,168a235.85,235.85,0,0,1,23.63,4.39c41.87,43.29,64.18,76.35,75,102.31C-665.41,264.2-686.18,257.17-708.31,252.57Zm-54.26-85.76c4.75,5.06,31.77,35.36,46.74,84.29a419.39,419.39,0,0,0-68.57-6.43c-14.53,0-41.87,2-68.89,7.25a235.07,235.07,0,0,1,19-45.3c12.64-23,25.42-37.06,28.2-40q10.28-.86,20.73-.87Q-773.9,165.76-762.57,166.81Zm-79.37,5.54a236.28,236.28,0,0,1,25.81-4.68,221.73,221.73,0,0,0-24,35.45,241.94,241.94,0,0,0-20.66,50.34c-23.2,5-45.24,12.51-57.64,23.19C-906,247.09-880.35,212.06-841.94,172.35ZM-922.5,341.18c-3.49-9.35-6.66-21.85-3.56-39.54A68.1,68.1,0,0,1-920,288.7c7-12.32,30.38-21.59,57.18-27.8a234.23,234.23,0,0,0-7,56.79c0,21.42,1.58,39.11,4.21,53.8C-893.54,364.6-917.57,354.4-922.5,341.18Zm35,56c-11.49-14.11-20-26.38-26.14-37.11,12.36,8,30.38,14.16,49.51,18.67,5.6,25.71,14.61,41.26,23.62,51.45C-858.73,422.71-875.76,411.66-887.52,397.23ZM-824.3,436c-10.9-8.3-24.67-22.53-32.5-55.52,26.9,5.71,54.8,8.29,71.4,8.29,17.46,0,46.19-2.77,73.48-8.9-8,34.33-22.43,48.55-33.53,56.8a149.31,149.31,0,0,1-39,5.49A144.63,144.63,0,0,1-824.3,436Zm21.93,14.3c-2.1-1.26-4.1-2.46-6-3.6a137.27,137.27,0,0,0,23.9,2.25,151,151,0,0,0,23.32-1.9l-5.39,3.25c-5.45,3.28-11.57,7-17.94,11.07C-790.79,457.22-796.91,453.54-802.37,450.26Zm17.94,153.68c-1.26-.53-2.51-1.06-3.74-1.61-32.41-14.49-52.55-35.88-52.55-55.82,0-34,29.5-59.29,56.28-77.07,26.78,17.77,56.28,43,56.28,77.07,0,19.94-20.13,41.33-52.55,55.82C-781.92,602.88-783.17,603.41-784.43,603.94ZM-481.18,510c21.27-47.91,18-97,10.56-131.89a297.85,297.85,0,0,0-24.88-71c8.13-.14,14.59-3.12,19.28-8.89,16.16-19.89,5.74-69.8-3-100.87,12.67,22.47,30.72,59.52,41,103.16C-419.08,382.18-433.52,452.45-481.18,510Z" transform="translate(1269.65 -24.85)"/>
</svg>